<svg width="185" height="284" viewBox="0 0 185 284" fill="none" xmlns="http://www.w3.org/2000/svg">
<rect width="184.02" height="284" rx="5" fill="white"/>
<path d="M83.3783 132.292C83.0783 132.766 82.678 133.17 82.2056 133.474C81.7331 133.777 81.1999 133.974 80.6433 134.05C80.01 134.14 79.3817 134.237 78.7533 134.342C76.9983 134.633 75.75 136.178 75.75 137.957V152C75.75 152.994 76.1451 153.948 76.8483 154.652C77.5516 155.355 78.5054 155.75 79.5 155.75H104.5C105.495 155.75 106.448 155.355 107.152 154.652C107.855 153.948 108.25 152.994 108.25 152V137.957C108.25 136.178 107 134.633 105.247 134.342C104.618 134.237 103.988 134.14 103.357 134.05C102.8 133.974 102.268 133.777 101.795 133.473C101.323 133.17 100.923 132.766 100.623 132.292L99.2533 130.098C98.9456 129.598 98.522 129.18 98.0184 128.879C97.5148 128.577 96.9459 128.402 96.36 128.367C93.4554 128.211 90.5446 128.211 87.64 128.367C87.0541 128.402 86.4852 128.577 85.9816 128.879C85.478 129.18 85.0544 129.598 84.7467 130.098L83.3783 132.292Z" stroke="black" stroke-width="2" stroke-linecap="round" stroke-linejoin="round"/>
<path d="M99.5 143.25C99.5 145.239 98.7098 147.147 97.3033 148.553C95.8968 149.96 93.9891 150.75 92 150.75C90.0109 150.75 88.1032 149.96 86.6967 148.553C85.2902 147.147 84.5 145.239 84.5 143.25C84.5 141.261 85.2902 139.353 86.6967 137.947C88.1032 136.54 90.0109 135.75 92 135.75C93.9891 135.75 95.8968 136.54 97.3033 137.947C98.7098 139.353 99.5 141.261 99.5 143.25ZM103.25 139.5H103.263V139.513H103.25V139.5Z" stroke="black" stroke-width="2" stroke-linecap="round" stroke-linejoin="round"/>
</svg>
