<svg width="188" height="214" viewBox="0 0 188 214" fill="none" xmlns="http://www.w3.org/2000/svg">
<path opacity="0.8" d="M26.4999 72.5C11.9062 50.4999 25.3332 21.6667 36.4999 0H188.299V160.5C179 184.5 158 193 130 187C101.644 180.924 87.0001 205.289 48.0001 204C14.9999 202.909 5.49981 162.5 13.4998 140.5C21.4998 118.5 46.7319 103 26.4999 72.5Z" fill="#FDCA40"/>
<path opacity="0.3" d="M20.5 75C0.99872 48.5001 21 16.5 29 0H188.299V191C155 212 138.5 188 103.5 201.5C71.7882 213.732 48.9996 218.5 25.9998 207.5C3 196.5 -6.49983 154.5 7.50016 131.5C21.5001 108.5 35.2179 95 20.5 75Z" fill="#FDCA40"/>
</svg>
