<svg width="13" height="13" viewBox="0 0 13 13" fill="#fff" xmlns="http://www.w3.org/2000/svg">
<path d="M1.69877 1.94877C1.43761 2.20994 1.23044 2.51999 1.08909 2.86122C0.947748 3.20245 0.875 3.56818 0.875 3.93752C0.875 4.30687 0.947748 4.6726 1.08909 5.01383C1.23044 5.35506 1.43761 5.66511 1.69877 5.92627L6.50002 10.7275L11.3013 5.92627C11.8287 5.39882 12.125 4.68345 12.125 3.93752C12.125 3.1916 11.8287 2.47622 11.3013 1.94877C10.7738 1.42133 10.0584 1.12501 9.31252 1.12501C8.5666 1.12501 7.85122 1.42133 7.32377 1.94877L6.50002 2.77252L5.67627 1.94877C5.41511 1.68761 5.10506 1.48044 4.76383 1.33909C4.4226 1.19775 4.05687 1.125 3.68752 1.125C3.31818 1.125 2.95245 1.19775 2.61122 1.33909C2.26999 1.48044 1.95994 1.68761 1.69877 1.94877V1.94877Z" stroke="white" stroke-width="1.5" stroke-linecap="round" stroke-linejoin="round"/>
</svg>
